<svg id="Layer_1" data-name="Layer 1" xmlns="http://www.w3.org/2000/svg" viewBox="0 0 532.85 257.14"><defs><style>.cls-1{fill:#ff8400;}.cls-2{fill:#fff;}.cls-3{fill:#73ffc2;}</style></defs><title>Untitled-5</title><path class="cls-1" d="M169.44,331.06l-0.19-54.47-1.58,1.21L194,288.11,193.49,286c-4,4.25.46,10.4,5.86,8.53,1.45-.5,2.28-2.2,3.46-2.65,2.52-1,7.86,1.78,10.32,2.55l19.77,6.18,4.71,1.47c2.19,0.68,3.2.61,4.17,2.71,1.09,2.33.58,7.7,0.13,10.26-0.78,4.47-5.59,6.51-5.07,11.53,0.45,4.36,5,5.5,5.64,9.33,1,6.39,0,13.77,0,20.24l1.88-1.08c-11.94-5.93-25.36-7.65-37.48-13.13-5.71-2.59-11.06-4.91-17.23-6.26a184.25,184.25,0,0,1-20.75-5.77c-1.52-.53-2.18,1.89-0.66,2.41a160.1,160.1,0,0,0,19,5.39c7.15,1.52,13.4,4.17,20.05,7.13,11.6,5.15,24.44,6.72,35.84,12.38a1.26,1.26,0,0,0,1.88-1.08l0-16.56c0-3,.71-6.08-1.44-8.31s-3.3-1.61-3.71-4.92c-0.38-3.08.75-3.44,2.59-5.77,0.9-1.14,1.37-1.26,1.79-2.76,0.63-2.3.28-5.27,0.36-7.62,0.07-2,.69-4.86,0-6.83-1-3-4.53-3.15-7.27-4l-16.95-5.3c-5.14-1.61-10.84-4.29-16.17-5a3.22,3.22,0,0,0-2.66.48,3.26,3.26,0,0,0-.45.45q-1.6,3.4-4.31.77-4-.34-1.54-3a1.27,1.27,0,0,0-.55-2.09l-26.37-10.31a1.26,1.26,0,0,0-1.58,1.21l0.19,54.47a1.25,1.25,0,0,0,2.5,0h0Z" transform="translate(-48.76 -100.24)"/><path class="cls-1" d="M196.75,313.89c-2.39,1.59-4.44,4-4.07,7.07a4.89,4.89,0,0,0,5.29,4.48c3-.27,5.23-3,6-5.71,0.91-3.42-3.85-4.53-6.17-5.68-1.44-.71-2.71,1.44-1.26,2.16l2.31,1.14c0.61,0.3,2.07.7,2.5,1.25,0.93,1.18-1.75,3.84-2.86,4.21a2.47,2.47,0,0,1-3.32-2.31C195,318.55,196.52,317,198,316c1.33-.89.08-3.05-1.26-2.16h0Z" transform="translate(-48.76 -100.24)"/><path class="cls-1" d="M168.44,277.09c7.89-1.53,15.72-3.36,23.45-5.57,4.26-1.22,8.82-3.91,12.55-.86,1.62,1.33,2.74,3.21,4.51,4.49,5.64,4.1,11.78,7.23,17.23,11.66a109.22,109.22,0,0,1,15.57,15.61c1,1.24,2.78-.53,1.77-1.77A109.72,109.72,0,0,0,226.61,284q-4.13-3.25-8.56-6.1c-3.63-2.32-7.82-4.16-10.64-7.51-1.33-1.58-2.12-3.59-4.26-4.14-2.64-.67-5.78,1-8.23,1.78a276.36,276.36,0,0,1-27.15,6.66c-1.58.31-.91,2.72,0.66,2.41h0Z" transform="translate(-48.76 -100.24)"/><path class="cls-1" d="M241.57,319.23a67.54,67.54,0,0,0,.88,12.85c0.22,1.59,2.62.91,2.41-.66a64,64,0,0,1-.79-12.18c0.09-1.61-2.41-1.6-2.5,0h0Z" transform="translate(-48.76 -100.24)"/><path class="cls-1" d="M194,288.14a7.42,7.42,0,0,0,3.43.11c0.47-.07,4.08-0.59,3.31.9s1.42,2.69,2.16,1.26a3.25,3.25,0,0,0-1.48-4.4c-2.19-1.16-4.54.42-6.76-.28-1.54-.49-2.2,1.93-0.66,2.41h0Z" transform="translate(-48.76 -100.24)"/><path class="cls-1" d="M203.3,278.09a213.71,213.71,0,0,0-2.15-26.84c-0.23-1.59-2.64-.91-2.41.66a208.5,208.5,0,0,1,2.06,26.17,1.25,1.25,0,0,0,2.5,0h0Z" transform="translate(-48.76 -100.24)"/><path class="cls-1" d="M195.41,221.13q1.26,4.83,2,9.75c0.25,1.58,2.66.91,2.41-.66q-0.78-4.93-2-9.75a1.25,1.25,0,0,0-2.41.66h0Z" transform="translate(-48.76 -100.24)"/><path class="cls-1" d="M202,230.46c-3-.27-6.89.09-9.17,2.4-1.53,1.55-2.08,4.08-.43,5.8,2,2.06,5.74,1.74,8.28,1.58,1.86-.11,4.75-0.9,5.81,1.61s0.14,4.39-1.71,5.86a12,12,0,0,1-9.77,2.8c-1.57-.31-2.24,2.1-0.66,2.41,5.6,1.1,16.53-2.62,15.18-10-0.48-2.63-2.34-5-5.07-5.39-2.42-.32-4.93.42-7.38,0.22-3.2-.26-2.49-3.77.32-4.55A12.76,12.76,0,0,1,202,233c1.6,0.14,1.59-2.36,0-2.5h0Z" transform="translate(-48.76 -100.24)"/><path class="cls-1" d="M413.31,340.43a106.76,106.76,0,0,0,19.28-19.92c0.74-1,1.58-2.81,2.6-3.44,1.91-1.19,5.54-.91,7.69-0.53a85.18,85.18,0,0,1,22.58,8.67V323q-12.86,9.9-25.51,20.06c-2.2,1.77-3.81,3.6-6.75,3.42-2.62-.15-5.41-1.21-7.95-1.89-5.27-1.39-10.44-3.08-15.55-5l0.55,2.09,2.15-1.82c1.23-1-.55-2.8-1.77-1.77L408.47,340a1.26,1.26,0,0,0,.55,2.09,169.47,169.47,0,0,0,16.43,5.2c3,0.78,8,2.91,11,1.88,2.33-.81,4.88-4,6.82-5.5q3.42-2.74,6.85-5.46,8.27-6.55,16.63-13a1.27,1.27,0,0,0,0-2.16A66.11,66.11,0,0,0,450.35,316c-4-1.18-10.19-4.07-14.36-2.46-4.56,1.77-7.72,8.73-10.74,12.18a103.32,103.32,0,0,1-13.72,13c-1.26,1,.52,2.76,1.77,1.77h0Z" transform="translate(-48.76 -100.24)"/><path class="cls-1" d="M435.66,350.08c8.79,0.57,17.49-4.38,25.46-7.51,2.56-1,4.9-1.24,5.54-4.08,0.87-3.87.37-8.58,0.53-12.55,0.06-1.61-2.44-1.61-2.5,0-0.12,3.07.21,6.59-.38,9.6-0.89,4.54-5.21,5.15-8.93,6.61-6.3,2.48-12.79,5.88-19.72,5.43-1.61-.1-1.6,2.4,0,2.5h0Z" transform="translate(-48.76 -100.24)"/><path class="cls-1" d="M343,257.56c-24.29,2.31-53.06-6.73-74.34,9.31-6.53,4.92-13.52,14.87-4.31,20.93,4.43,2.91,10.26,3.68,15.39,4.37a143.45,143.45,0,0,0,21,.89c7.56-.1,15.12-0.34,22.68,0,1.79,0.08,3.65.43,5.37-.24,3-1.15,5.41-4.55,7.73-6.61,2-1.81,4.33-4.32,6.69-5.7,4.53-2.65,8,.69,12,2.83A55.58,55.58,0,0,1,362,287.3c2.64,1.93,4.42,4.9,7.51,6.19,4.88,2,11.5.55,16.62,0.71,6.46,0.2,13,.71,19.35-0.75,8.85-2,18-9.29,16.59-19.4-1.83-13-18.32-15-28.58-16.47a192.48,192.48,0,0,0-49.75-.33c-1.58.19-1.6,2.69,0,2.5a193.26,193.26,0,0,1,36.14-1.07q8.87,0.59,17.65,2c6,1,12.8,2,17.59,6.1a12,12,0,0,1,2.58,15.82c-3.56,6.1-10.81,8.48-17.45,9.12-5,.48-10,0.06-15-0.08-2.63-.07-5.23,0-7.86.1-4.17.16-7.07-.43-10.38-3.3a54.18,54.18,0,0,0-10.6-7.27c-2.87-1.52-7.39-5.38-10.81-5-3.22.37-6.67,4.56-8.91,6.5-2,1.71-3.83,3.67-5.88,5.29-3.56,2.83-6.88,2.53-11.2,2.41-11.63-.31-23.27.7-34.89-0.23-5.59-.45-11.8-1.11-17-3.45-4.29-1.94-6.83-5.29-4.52-10.33,1.24-2.71,3.75-5,6-6.87,20.45-16.59,50-7.23,73.74-9.48,1.59-.15,1.6-2.65,0-2.5h0Z" transform="translate(-48.76 -100.24)"/><path class="cls-1" d="M344.08,277.79c0.2,9.83.35,19.67,0.36,29.51,0,3,0,5.57-1.48,8.33-0.86,1.56-2,3-2.94,4.52l-8.62,13.16,2.33,0.63c-0.59-14,0-28.74-3.5-42.41a1.25,1.25,0,0,0-2.41.66c3.46,13.42,2.83,28,3.41,41.75a1.26,1.26,0,0,0,2.33.63l9.16-14c2.12-3.23,4-5.91,4.22-9.85,0.66-10.88-.13-22.06-0.35-32.95a1.25,1.25,0,0,0-2.5,0h0Z" transform="translate(-48.76 -100.24)"/><path class="cls-1" d="M258.56,281.88l0,15.45c0,4.6-.59,9.68.16,14.23,1.12,6.78,9.85,8.69,15.4,10.56,9.33,3.13,19,5.22,28.55,7.53,9.78,2.37,19.54,4.76,29.6,5.57,1.6,0.13,1.6-2.37,0-2.5-17-1.37-34.24-6.29-50.57-10.89-3.77-1.06-7.51-2.22-11.16-3.64a43.79,43.79,0,0,1-6-2.57c-3-1.73-3.45-4.45-3.47-7.66-0.06-8.69,0-17.39-.06-26.08a1.25,1.25,0,0,0-2.5,0h0Z" transform="translate(-48.76 -100.24)"/><path class="cls-1" d="M346,314.59a56.62,56.62,0,0,0,10,11.2c2.91,2.45,7,6.25,10.83,6.9a1.3,1.3,0,0,0,1.54-.87c0.83-2,.43-4.67.5-6.85l0.33-10.73,0.63-20.48c0-1.61-2.45-1.61-2.5,0l-0.57,18.53-0.27,8.78c-0.09,3,.6,7.33-0.53,10.09l1.54-.87c-3.74-.63-8.24-4.9-10.9-7.28a54.3,54.3,0,0,1-8.46-9.68c-0.91-1.31-3.08-.07-2.16,1.26h0Z" transform="translate(-48.76 -100.24)"/><path class="cls-1" d="M368.39,333.72c6.7,0.51,13.44.88,19.83-1.57,7-2.67,13.4-7.33,19.8-11.12,2-1.21,4.86-2.34,6.2-4.43,1.52-2.38,1.41-6,1.84-8.69L420,283c0.25-1.57-2.16-2.25-2.41-.66l-3,19.13c-0.51,3.19-1,6.38-1.52,9.56-0.48,2.92-.28,3.67-3,5.86a34.33,34.33,0,0,1-4.11,2.44c-5.36,3.17-10.67,6.81-16.32,9.45-6.83,3.2-13.89,3-21.23,2.41-1.6-.12-1.6,2.38,0,2.5h0Z" transform="translate(-48.76 -100.24)"/><path class="cls-2" d="M51.12,301.46Q80,256.2,112.79,213.64l-1.71.45,15.26,9.35,3.39,2.08c2.44,1.49,3.32,1.18,3,4-0.4,3-3.63,5.68-5.53,7.94l-22.91,27.21L82,291.08c-3.37,4-6.56,8.56-10.46,12.07-6.67,6-13.61,1.74-19.45-3-1.24-1-3,.75-1.77,1.77,3.87,3.14,8.33,6.69,13.56,6.91s8.77-3,11.95-6.57c10.14-11.44,19.73-23.43,29.57-35.12s20.82-23.15,29.91-35.53c2.63-3.59.67-5.16-2.6-7.23-6.71-4.27-13.57-8.31-20.35-12.47a1.29,1.29,0,0,0-1.71.45Q77.87,254.91,49,300.2c-0.87,1.36,1.29,2.62,2.16,1.26h0Z" transform="translate(-48.76 -100.24)"/><path class="cls-2" d="M130.86,165.39V153.78a1.25,1.25,0,0,0-2.5,0v11.61a1.25,1.25,0,0,0,2.5,0h0Z" transform="translate(-48.76 -100.24)"/><path class="cls-2" d="M160.3,170.37a43.61,43.61,0,0,0,6.27-9.22c0.72-1.43-1.43-2.7-2.16-1.26a41.06,41.06,0,0,1-5.88,8.71c-1.06,1.2.7,3,1.77,1.77h0Z" transform="translate(-48.76 -100.24)"/><path class="cls-2" d="M176.32,201.18h10.78a1.25,1.25,0,0,0,0-2.5H176.32a1.25,1.25,0,0,0,0,2.5h0Z" transform="translate(-48.76 -100.24)"/><path class="cls-2" d="M113.4,213c-9.44-8.46-2.13-24.51,4.9-32.38,8.44-9.45,25.89-7.44,35.41-.83a28.83,28.83,0,0,1,10.74,13.62c2.61,7.21.58,12.24-3.83,18-2.76,3.61-4.77,7.54-7.24,11.33-3.12,4.77-10.71,10.94-15.7,4.52-1-1.27-2.74.51-1.77,1.77,3.21,4.14,9,4.12,13.28,1.66,6-3.38,8.2-10.75,12-16,4.52-6.19,8.41-11,6.48-19.1a30.51,30.51,0,0,0-10.81-16.55c-10.25-8.13-30-11.2-39.86-.73-8.23,8.72-16.18,26.79-5.4,36.45,1.2,1.07,3-.69,1.77-1.77h0Z" transform="translate(-48.76 -100.24)"/><path class="cls-3" d="M370.06,114.79L267.36,116.3a1.27,1.27,0,0,0-1.25,1.25l-0.83,90.71a1.28,1.28,0,0,0,1.25,1.25c38.72,2.64,77.47,5.29,116.29,6,19.71,0.34,39.46.23,59.15-.75,5.07-.25,9.15-1,9.63-6.78,0.76-9.2-.68-19.12-1.38-28.31A604.93,604.93,0,0,0,442,116.31a1.26,1.26,0,0,0-1.21-.92l-72.73-1.62a1.25,1.25,0,0,0,0,2.5l66.84,1.48c3.44,0.08,4.29-.22,5.39,3.06,0.88,2.63,1,5.92,1.48,8.68q1.46,9,2.65,18,2.15,16.48,3.38,33.07,0.61,8.29,1,16.59c0.24,5.28,2.53,14.3-4.84,14.92-11.09.94-22.39,0.87-33.51,1-22.69.22-45.37-.4-68-1.46-25.31-1.18-50.59-2.9-75.87-4.63l1.25,1.25,0.83-90.71-1.25,1.25,102.69-1.51a1.25,1.25,0,0,0,0-2.5h0Z" transform="translate(-48.76 -100.24)"/><path class="cls-3" d="M428.05,124.85c-2.89-.25-6.17-0.1-8.22,2.26a5.09,5.09,0,0,0-.29,6.79c2.4,2.68,6.33,1.08,9.08,2.84,3.13,2,2.89,6.26.13,8.59s-6.23,2-9.28,1c-1.54-.48-2.2,1.94-0.66,2.41,6,1.87,14.62-.16,14.63-7.83a7.21,7.21,0,0,0-3.87-6.7,12.3,12.3,0,0,0-3.84-.82c-1.33-.17-7.18-0.3-4.41-4.16,1.29-1.79,4.75-2.07,6.72-1.9,1.6,0.14,1.59-2.36,0-2.5h0Z" transform="translate(-48.76 -100.24)"/><path class="cls-3" d="M423.81,124v27a1.25,1.25,0,0,0,2.5,0V124a1.25,1.25,0,0,0-2.5,0h0Z" transform="translate(-48.76 -100.24)"/><path class="cls-3" d="M295.22,129.25C289,128,280,127.78,279.19,136a1.25,1.25,0,0,0,.62,1.08l4.21,2.83c0.88,0.59,2.6,1.28,3.16,2.12,3.89,5.85-3,5-4.91,4.75a40.61,40.61,0,0,0-4.2-.45c-1.61-.05-1.61,2.45,0,2.5,3.52,0.12,7.41,1.69,10.66-.35,1.9-1.19,3.33-3.43,2.46-5.71-1-2.65-4.81-4.26-7-5.71-1.31-.88-2.79-1.18-1.9-3.16a5.77,5.77,0,0,1,3.26-2.48c2.9-1,6-.37,9,0.23,1.57,0.32,2.24-2.09.66-2.41h0Z" transform="translate(-48.76 -100.24)"/><path class="cls-3" d="M286.73,125a173.37,173.37,0,0,1-2.34,32.77c-0.26,1.57,2.14,2.25,2.41.66A177,177,0,0,0,289.23,125a1.25,1.25,0,0,0-2.5,0h0Z" transform="translate(-48.76 -100.24)"/><path class="cls-3" d="M340.76,171.87c-6.3-5.53-9.94-14-5.53-21.82,1.95-3.47,4.91-7.37,8.23-9.65,3.65-2.51,8.05-2.78,12.33-2.79,8.25,0,16.78.73,19.88,9.85A17.32,17.32,0,0,1,370,166.63c-1.26,1,.52,2.75,1.77,1.77a19.75,19.75,0,0,0,6-22.23c-3.64-9.8-12.77-11.09-22.06-11.06-5.06,0-10.07.5-14.24,3.63a33.32,33.32,0,0,0-8.85,10.69c-4.53,8.65-.6,18.17,6.29,24.21,1.2,1.06,3-.7,1.77-1.77h0Z" transform="translate(-48.76 -100.24)"/><path class="cls-3" d="M334,179.15a47.65,47.65,0,0,1,53.49-1.79l-0.45-1.71c-1.47,3.12-3.27,5.09-7.19,4.9-2.06-.1-4.43-1.3-6.47-1.73a60.11,60.11,0,0,0-26.05.33,57.24,57.24,0,0,0-6.76,2c-2,.74-2,1.06-4.18.15-2-.84-2.37-1.73-3.57-3.42-0.93-1.3-3.1-.05-2.16,1.26,2.45,3.43,3.58,6.66,8.11,5.39,7.49-2.1,14-4.46,22-4.51a56.51,56.51,0,0,1,11.94,1.19c2.69,0.56,5.43,1.87,8.18,2.07,4.23,0.31,6.66-2.89,8.31-6.39a1.29,1.29,0,0,0-.45-1.71,50.08,50.08,0,0,0-56,1.79c-1.28.94,0,3.11,1.26,2.16h0Z" transform="translate(-48.76 -100.24)"/><path class="cls-3" d="M288.54,180.7c-3.94-1.24-10.05.41-11.1,5.05-0.43,1.92,1,3.45,2.44,4.47s2.94,1.38,4.36,2.17a6.16,6.16,0,0,1,2.15,1.57q-0.13,4.92-3.23,4.56a11.26,11.26,0,0,1-2.76-.34c-1.57-.27-2.25,2.14-0.66,2.41,2.69,0.47,5.67.9,8-.86a4.74,4.74,0,0,0,1.71-5.55c-0.94-2.51-3.47-3.71-5.73-4.77a7.71,7.71,0,0,1-2.42-1.3,2.86,2.86,0,0,1,.65-4.28,6.77,6.77,0,0,1,5.92-.74c1.54,0.49,2.2-1.93.66-2.41h0Z" transform="translate(-48.76 -100.24)"/><path class="cls-3" d="M280.14,178.3a123.85,123.85,0,0,0,1.6,27.34c0.27,1.58,2.68.91,2.41-.66a120.88,120.88,0,0,1-1.51-26.67c0.08-1.61-2.42-1.6-2.5,0h0Z" transform="translate(-48.76 -100.24)"/><path class="cls-3" d="M433.34,187.35c-2.31,0-13.14.19-8.64,5.17,1.89,2.09,4.24,2.45,6.75,3.19,1.5,0.44,5.2,3.46,2.66,5.72a4.45,4.45,0,0,1-2.22.61,12.58,12.58,0,0,1-5.61-.48c-1.52-.54-2.17,1.88-0.66,2.41,3.79,1.33,12.81,1.3,11.72-4.89-0.42-2.4-2.08-5.12-4.55-5.71-0.93-.22-6.53-0.9-6.32-2.6,0.13-1.06,6.23-.9,6.87-0.91a1.25,1.25,0,0,0,0-2.5h0Z" transform="translate(-48.76 -100.24)"/><path class="cls-3" d="M428.09,183v20.67a1.25,1.25,0,0,0,2.5,0V183a1.25,1.25,0,0,0-2.5,0h0Z" transform="translate(-48.76 -100.24)"/><path class="cls-2" d="M477.75,284.33l6-2c1.52-.51.87-2.93-0.66-2.41l-6,2c-1.52.51-.87,2.93,0.66,2.41h0Z" transform="translate(-48.76 -100.24)"/><path class="cls-2" d="M476.4,245.28a12.92,12.92,0,0,1,7.36,1.86A1.25,1.25,0,0,0,485,245a15.37,15.37,0,0,0-8.62-2.21c-1.6.07-1.61,2.57,0,2.5h0Z" transform="translate(-48.76 -100.24)"/><path class="cls-2" d="M506.09,217a13.37,13.37,0,0,0,4.44,9.87c1.19,1.07,3-.69,1.77-1.77a10.85,10.85,0,0,1-3.71-8.1,1.25,1.25,0,0,0-2.5,0h0Z" transform="translate(-48.76 -100.24)"/><path class="cls-2" d="M535.65,219.38v-5a1.25,1.25,0,0,0-2.5,0v5a1.25,1.25,0,0,0,2.5,0h0Z" transform="translate(-48.76 -100.24)"/><path class="cls-2" d="M559.22,237.87l7-8c1.06-1.2-.7-3-1.77-1.77l-7,8c-1.06,1.2.7,3,1.77,1.77h0Z" transform="translate(-48.76 -100.24)"/><path class="cls-2" d="M568.41,261.3h12a1.25,1.25,0,0,0,0-2.5h-12a1.25,1.25,0,0,0,0,2.5h0Z" transform="translate(-48.76 -100.24)"/><path class="cls-2" d="M555.12,289.06a17.61,17.61,0,0,0,4.42,11.87c1.06,1.22,2.82-.56,1.77-1.77a14.93,14.93,0,0,1-3.69-10.1,1.25,1.25,0,0,0-2.5,0h0Z" transform="translate(-48.76 -100.24)"/><path class="cls-2" d="M467,162l19.24-22.43-2-.25a90.38,90.38,0,0,0,7.38,10.37,1.25,1.25,0,0,0,1.77,0q9.18-11.35,18.36-22.7c5-6.24,9.75-12.58,12-20.36a1.25,1.25,0,0,0-2.41-.66c-2.52,8.58-8.19,15.3-13.71,22.13l-16,19.83h1.77a85.83,85.83,0,0,1-7-9.86,1.26,1.26,0,0,0-2-.25l-19.24,22.43c-1,1.22.72,3,1.77,1.77h0Z" transform="translate(-48.76 -100.24)"/><path class="cls-2" d="M510.85,111.26a40.25,40.25,0,0,0,14.26-6.43l-1.88-1.08a93.43,93.43,0,0,1-.41,16.74c-0.18,1.6,2.32,1.58,2.5,0a93.43,93.43,0,0,0,.41-16.74,1.26,1.26,0,0,0-1.88-1.08,38.51,38.51,0,0,1-13.67,6.18c-1.57.37-.9,2.78,0.66,2.41h0Z" transform="translate(-48.76 -100.24)"/><path class="cls-2" d="M249.24,158.43a110.79,110.79,0,0,0-19-32.63,1.27,1.27,0,0,0-2,.25,49.88,49.88,0,0,0-6.52,12.07l2.09-.55c-11.29-8.9-18.7-22.94-26.33-34.9a1.27,1.27,0,0,0-2.28.3,65.53,65.53,0,0,0-1.48,15.46,1.25,1.25,0,0,0,2.5,0,93.26,93.26,0,0,0-.72-16.93L194,102.71l19.07,7.45c1.5,0.59,2.15-1.83.66-2.41l-19.07-7.45a1.25,1.25,0,0,0-1.58,1.21,93.26,93.26,0,0,1,.72,16.93h2.5a62.51,62.51,0,0,1,1.39-14.8l-2.28.3c7.73,12.13,15.25,26.37,26.72,35.41a1.27,1.27,0,0,0,2.09-.55,47.21,47.21,0,0,1,6.27-11.47l-2,.25a107.16,107.16,0,0,1,18.32,31.53c0.56,1.49,3,.85,2.41-0.66h0Z" transform="translate(-48.76 -100.24)"/><path class="cls-2" d="M528.68,235.43c-6.19-.27-12.43-0.19-17.43,4-4.74,3.93-7.67,10.1-9.53,15.86-2,6.11-2.53,12.84-.39,19a22.84,22.84,0,0,0,3.34,6.35c2.26,3,5.44,4.22,8,6.79s1.78,6.59,4.1,8.87c1.51,1.49,4.42,1.39,6.37,1.71,4.27,0.69,11,2.12,12.92-3.25,0.31-.86.08-1.83,0.31-2.68,0.53-2,1.92-2.76,3.56-3.76a18.81,18.81,0,0,0,5.42-4.37,24.53,24.53,0,0,0,4.83-14.43c0.45-14-7.7-27.25-19.79-34a1.25,1.25,0,0,0-1.26,2.16c11.67,6.5,19.61,19.58,18.48,33.15-0.61,7.32-3.88,12.58-10.36,15.86-1.57.79-2.54,1.13-3.16,2.88a17.9,17.9,0,0,0-.22,2.49c-1,4.86-5.06,4.27-8.47,3.77-3.8-.55-6.09-0.57-7.76-4.33-0.94-2.13-1.5-4.14-3.21-5.86-2.15-2.17-5-3.32-7.08-5.66A20.67,20.67,0,0,1,502.8,270c-1.41-7.77,1.29-16.21,5.26-22.84,4.84-8.07,11.69-9.63,20.62-9.25,1.61,0.07,1.61-2.43,0-2.5h0Z" transform="translate(-48.76 -100.24)"/><path class="cls-2" d="M515.72,296.32c0.58,4.62-1.25,10,1.42,14.16,1.67,2.63,5.95,5.84,9.19,5.78a5,5,0,0,0,3.21-1.45c1.19-.93,2.9-1.74,3.84-3,2.65-3.51,1.81-10.45,2.09-14.52,0.11-1.61-2.39-1.6-2.5,0-0.24,3.5,0,7.58-.83,11-0.37,1.43-3.36,4.13-5,4.93-3.76,1.85-8.63-4.24-8.93-7.59-0.28-3.11.4-6.19,0-9.31-0.2-1.57-2.7-1.59-2.5,0h0Z" transform="translate(-48.76 -100.24)"/><path class="cls-2" d="M517.63,302.86c5.11,1.35,10.23,2.51,15.44,1a1.25,1.25,0,0,0-.66-2.41c-4.77,1.35-9.45.21-14.11-1a1.25,1.25,0,0,0-.66,2.41h0Z" transform="translate(-48.76 -100.24)"/><path class="cls-2" d="M517.93,308.72A22.86,22.86,0,0,0,531.31,310c1.58-.31.91-2.72-0.66-2.41a20.55,20.55,0,0,1-12.05-1.27c-1.48-.62-2.13,1.8-0.66,2.41h0Z" transform="translate(-48.76 -100.24)"/></svg>