<svg id="Layer_1" data-name="Layer 1" xmlns="http://www.w3.org/2000/svg" viewBox="0 0 452.01 207.9"><defs><style>.cls-1{fill:#fff;}</style></defs><title>Untitled-5</title><path class="cls-1" d="M253.31,456.42L253,374.73l-3.16,2.41,39.55,15.46-1.1-4.18a8.48,8.48,0,0,0,.18,12.35c3.59,3.18,9.15,2.5,12.67-.44,0.92-.77,1.6-2.26,2.77-2.65,1.36-.45,6.09,1.9,7.53,2.35l13.18,4.12,27.3,8.53a53.27,53.27,0,0,1,6.59,2.06c3.17,1.48,2.73,2,2.61,5.56-0.14,4.34.45,9.35-.43,13.57-0.82,3.91-4,4.94-5.87,8.12a12.75,12.75,0,0,0,1.94,15.41,19.61,19.61,0,0,0,2.6,2.05c2.48,1.79,2.22,2.16,2.23,5.38l0.06,29.22,3.76-2.16c-17.6-8.86-37.52-11.14-55.39-19.32-8.84-4-17.25-7.75-26.81-9.82a270.51,270.51,0,0,1-31.12-8.65c-3-1.05-4.36,3.78-1.33,4.82a244.5,244.5,0,0,0,29.35,8.27c10.38,2.19,19.4,6.15,29,10.44,17.39,7.73,36.7,10,53.74,18.58a2.53,2.53,0,0,0,3.76-2.16l-0.06-26.3c0-2.82.75-6.66-.47-9.34-1.13-2.47-4-2.7-5.83-4.56a7.92,7.92,0,0,1,.08-11c1.9-2,4-2.59,4.87-5.43s0.54-6.37.63-9.4c0.13-4,.94-8.69.35-12.68-0.86-5.84-9.36-6.38-13.92-7.81l-24.48-7.65-13.18-4.12c-3.3-1-6.94-2.8-10.36-3.18-2.16-.24-3.21.46-4.67,1.88s-2.05,2.84-4.31,3.28c-3.47.68-6.26-3.21-3.48-5.83,1.49-1.4.55-3.53-1.1-4.18l-39.55-15.46c-1.54-.6-3.17.92-3.16,2.41l0.29,81.69c0,3.22,5,3.22,5,0h0Z" transform="translate(-248.02 -288.61)"/><path class="cls-1" d="M293.33,430.13c-3.77,2.51-7,6.34-6.42,11.15a8,8,0,0,0,8.64,7.34c4.72-.47,8.27-4.61,9.46-9,1.5-5.57-5.73-7.34-9.54-9.22-2.87-1.42-5.41,2.89-2.52,4.32l3.47,1.72c0.76,0.38,3.3,1.11,3.75,1.87,0.64,1.07-2.71,4.68-4.13,5.17a3.06,3.06,0,0,1-4.19-2.86c-0.24-2.67,2-4.79,4-6.14,2.67-1.77.17-6.1-2.52-4.32h0Z" transform="translate(-248.02 -288.61)"/><path class="cls-1" d="M251.35,376.09c11.46-2.21,22.82-4.86,34-8q4.09-1.16,8.17-2.4c2.95-.9,5.68-2.54,8.57-1.32,2.37,1,3.14,3,4.83,4.8a32.15,32.15,0,0,0,5.31,4.45c8.56,6,17.61,10.8,25.73,17.46a162.34,162.34,0,0,1,22.69,22.87c2,2.49,5.55-1.06,3.54-3.54a162.05,162.05,0,0,0-24.67-24.47c-4.16-3.3-8.46-6.42-12.91-9.31-5-3.21-10.72-5.79-15-9.89-2.85-2.71-4.31-7.46-8.6-8.26-4.49-.84-10.17,2.23-14.38,3.47q-19.05,5.63-38.58,9.35c-3.16.61-1.82,5.43,1.33,4.82h0Z" transform="translate(-248.02 -288.61)"/><path class="cls-1" d="M360.24,438.67c-0.36,6.54.47,13,1.34,19.43,0.43,3.17,5.25,1.82,4.82-1.33a95.17,95.17,0,0,1-1.17-18.1c0.18-3.22-4.82-3.21-5,0h0Z" transform="translate(-248.02 -288.61)"/><path class="cls-1" d="M289.39,392.65a11.83,11.83,0,0,0,5.48.17c0.26,0,4.77-.58,4.26.42-1.47,2.86,2.84,5.39,4.32,2.52a5.5,5.5,0,0,0-2.44-7.45c-3.39-1.82-6.9.58-10.29-.49-3.08-1-4.39,3.85-1.33,4.82h0Z" transform="translate(-248.02 -288.61)"/><path class="cls-1" d="M304.09,377a314,314,0,0,0-3.24-40.42c-0.46-3.17-5.28-1.82-4.82,1.33A303.81,303.81,0,0,1,299.09,377c0,3.21,5,3.22,5,0h0Z" transform="translate(-248.02 -288.61)"/><path class="cls-1" d="M291,291.72q1.89,7.24,3.05,14.62c0.5,3.17,5.32,1.82,4.82-1.33q-1.16-7.39-3.05-14.62c-0.81-3.11-5.64-1.79-4.82,1.33h0Z" transform="translate(-248.02 -288.61)"/><path class="cls-1" d="M301.5,304.93c-4.9-.48-11.34.28-14.74,4.31-2.55,3-2.4,7.48.89,9.86,4.42,3.2,10.21,1.16,15.12,1.47,3.35,0.21,7.44,3.23,5.32,7.6-0.91,1.87-3.35,3.33-5,4.35-3.66,2.22-7.59,3.41-11.87,2.5-3.14-.66-4.48,4.16-1.33,4.82,8.69,1.84,25.92-4.26,23.54-15.72-1-4.65-4.26-8.45-9.17-8.62-3.09-.1-7.15,1.4-10.12.4q-4.11.47-1.94-4.63a12.61,12.61,0,0,1,3-1.07,18.2,18.2,0,0,1,6.3-.28c3.2,0.32,3.18-4.69,0-5h0Z" transform="translate(-248.02 -288.61)"/><path class="cls-1" d="M618.87,470.91c12.29-9.68,21.86-21,31.36-33.28,3.49-4.52,7.24-3.71,12.31-2.41,3.63,0.93,7.25,1.89,10.83,3a91.14,91.14,0,0,1,22.94,10v-4.32q-23.4,18-46.33,36.61l2.43-.64a252,252,0,0,1-39.25-11.1l1.1,4.18,3.23-2.72c2.46-2.08-1.09-5.6-3.54-3.54l-3.23,2.72c-1.56,1.32-.5,3.58,1.1,4.18a249.77,249.77,0,0,0,24.76,7.83c4.19,1.08,8.41,2.09,12.66,2.9,3.26,0.62,3.88,0,6.52-2.12q21.31-17.26,43.05-34c1.48-1.14,1.73-3.23,0-4.32a96.31,96.31,0,0,0-24.13-10.49c-4.4-1.32-8.86-2.54-13.34-3.6-3.08-.73-6.18-1.38-9.23-0.19-3.21,1.26-5.12,4-7.07,6.72-3,4.08-6,8.08-9.36,11.88a152.77,152.77,0,0,1-20.37,19.21c-2.53,2,1,5.51,3.54,3.54h0Z" transform="translate(-248.02 -288.61)"/><path class="cls-1" d="M652,485.58c13.08,1.06,26.3-6.55,38.16-11.22,3.54-1.39,8.06-2.06,8.93-6.28,1.26-6,.58-13.16.82-19.34,0.13-3.22-4.87-3.21-5,0l-0.58,14.66c0,0.79.27,3-.14,3.66-0.58.9-2.66,1.38-3.6,1.78-2.6,1.11-5.27,2.07-7.91,3.11-9.65,3.79-20.05,9.48-30.68,8.62-3.21-.26-3.19,4.74,0,5h0Z" transform="translate(-248.02 -288.61)"/><path class="cls-1" d="M512.91,345.57c-36.25,3.58-78.61-9.9-110.73,13.25-6,4.29-12.3,10-14.25,17.38-1.86,7,1.85,13.15,7.87,16.59C403,396.9,412.1,398,420.22,399a231.35,231.35,0,0,0,30.6,1c10.59-.16,21.18-0.53,31.76,0,3.55,0.17,7.32.94,10.52-1,3.82-2.35,7-6.28,10.32-9.25,3.52-3.13,7.09-6.21,10.76-9.15,3-2.44,4.68-1.52,7.84.16l8,4.24c4.37,2.32,9.06,4.47,12.85,7.7,3,2.55,5.14,5.83,8.76,7.58,3.45,1.67,7.36,1.8,11.12,1.68,5.24-.17,10.42-0.35,15.66-0.16,9.63,0.34,19.37,1,28.84-1.27,13.76-3.25,27.89-15.27,24.72-30.9-4-19.77-29.65-22.25-45.68-24.34a287.18,287.18,0,0,0-72.22-.17c-3.15.39-3.19,5.39,0,5a287.37,287.37,0,0,1,54.21-1.6,275.27,275.27,0,0,1,28.65,3.4c8.06,1.39,16.87,2.94,23.38,8.28s8.87,13.4,5.29,21.14-11,12.14-18.91,14.17c-8.29,2.11-16.91,1.74-25.38,1.41-4.51-.18-9-0.35-13.53-0.19-4.2.15-9,1-13.07-.54s-6.4-5.56-9.63-8.09a62.8,62.8,0,0,0-9.33-5.71c-3.72-2-7.45-4-11.18-5.93-2.67-1.42-5.38-3.4-8.53-2.74-2.62.55-4.83,2.92-6.83,4.56q-5.46,4.49-10.71,9.22c-3.38,3-6.71,7.62-11.46,7.82-4.53.19-9.21-.47-13.76-0.52-17.66-.16-35.45,1.35-53-0.78-7.69-.93-17.5-2-23.85-6.84-8.91-6.86-.32-17,5.89-22.12,30.43-25.34,75.05-10.95,110.66-14.47,3.17-.31,3.21-5.32,0-5h0Z" transform="translate(-248.02 -288.61)"/><path class="cls-1" d="M514,376.52q0.46,22.13.54,44.26c0,3.89.27,7.66-1.58,11.23a101.49,101.49,0,0,1-5.5,8.54l-12.39,18.91,4.66,1.26c-0.89-21,.13-43.3-5.28-63.77-0.82-3.11-5.65-1.79-4.82,1.33,5.29,20,4.23,41.88,5.1,62.44a2.52,2.52,0,0,0,4.66,1.26l12.92-19.73c3.84-5.87,7.12-10.49,7.23-17.69,0.24-16-.22-32-0.55-48-0.07-3.21-5.07-3.22-5,0h0Z" transform="translate(-248.02 -288.61)"/><path class="cls-1" d="M385.71,382.66l0.06,23.18c0,6.78-.48,13.8.15,20.56,1.1,11.82,16.78,15,26.11,18,13.69,4.39,27.8,7.44,41.76,10.82,14.25,3.45,28.49,6.91,43.14,8,3.21,0.25,3.19-4.75,0-5-13.23-1-26.12-4.07-39-7.18-12.53-3-25.13-5.84-37.53-9.37A180.57,180.57,0,0,1,403,435.91c-2.8-1.12-6-2.15-8.48-3.89-3.52-2.46-3.64-5.8-3.66-9.76-0.07-13.2-.06-26.4-0.09-39.59,0-3.22-5-3.22-5,0h0Z" transform="translate(-248.02 -288.61)"/><path class="cls-1" d="M516.94,432a84.29,84.29,0,0,0,14.56,16.45c4.43,3.81,11.2,10,17.1,11a2.51,2.51,0,0,0,2.43-.64c1.87-2.39,1.24-5.84,1.33-8.73l0.52-16.87,1-32.75c0.1-3.22-4.9-3.22-5,0L548,428.28l-0.43,13.89-0.18,6c0,1.08.56,6.56,0.08,7.18l2.43-.64c-3-.5-6.06-3.13-8.49-4.79a74.1,74.1,0,0,1-7.6-6,79.38,79.38,0,0,1-12.59-14.39c-1.81-2.64-6.14-.14-4.32,2.52h0Z" transform="translate(-248.02 -288.61)"/><path class="cls-1" d="M551.06,461c10.3,0.79,20.75,1.33,30.53-2.62,10.19-4.12,19.59-10.79,29-16.38,3.47-2.05,8-3.88,10-7.61,2.18-4.14,2.1-9.91,2.83-14.47l5.62-35.38c0.5-3.15-4.32-4.5-4.82-1.33l-4.86,30.6c-0.71,4.46-1.4,8.93-2.13,13.39-1.08,6.63-5.57,8.36-10.88,11.5-8.2,4.86-16.33,10.47-25,14.39-9.64,4.33-20,3.71-30.28,2.92-3.21-.25-3.19,4.76,0,5h0Z" transform="translate(-248.02 -288.61)"/></svg>